<svg viewBox="0 0 16 16" version="1.1" xmlns="http://www.w3.org/2000/svg" xmlns:xlink="http://www.w3.org/1999/xlink">
    <path d="M13.5075063,9.53283725 C12.9916436,11.547838 11.4199576,13.1340763 9.4238977,13.6539912 L10.3904913,10.4829681 L13.5075063,9.53283725 Z M6.51032532,13.6372591 C4.56458683,13.1062986 3.03210711,11.5593398 2.50574048,9.59497492 L5.58332568,10.5061193 L6.51032532,13.6372591 Z M2.48946195,6.64908446 C3.00532465,4.63408372 4.57701066,3.04784541 6.57307053,2.52793053 L5.60647691,5.69895366 L2.48946195,6.64908446 Z M9.4866429,2.54466263 C11.4323814,3.07562314 12.9648611,4.62258196 13.4912277,6.58694679 L10.4136425,5.67580243 L9.4866429,2.54466263 Z M7.2032952,8.7977264 L0.00731531156,8.03672297 L7.21095915,7.20637119 L8.04131093,0.00272735793 L8.80231436,7.19870725 L15.9982942,7.95971068 L8.79465041,8.79006246 L7.96429863,15.9937063 L7.2032952,8.7977264 Z"></path>
</svg>