<svg viewBox="0 0 16 16" version="1.1" xmlns="http://www.w3.org/2000/svg" xmlns:xlink="http://www.w3.org/1999/xlink">
    <path d="M13.5365167,9.43178102 C13.0186757,11.4386584 11.4386584,13.0186757 9.43178102,13.5365167 L10.3801101,10.3801101 L13.5365167,9.43178102 Z M6.56318164,13.5358399 C4.55781172,13.017368 2.97909499,11.4381981 2.46126953,9.43256825 L5.61505585,10.3801101 L6.56318164,13.5358399 Z M2.46194676,6.56239428 C2.98040243,4.55827191 4.55827191,2.98040243 6.56239428,2.46194676 L5.61505585,5.61505585 L2.46194676,6.56239428 Z M9.43256825,2.46126953 C11.4381981,2.97909499 13.017368,4.55781172 13.5358399,6.56318164 L10.3801101,5.61505585 L9.43256825,2.46126953 Z M7.20387353,8.79612647 L-5.68434189e-14,8 L7.20387353,7.20387353 L8,2.26485497e-14 L8.79612647,7.20387353 L16,8 L8.79612647,8.79612647 L8,16 L7.20387353,8.79612647 Z"></path>
</svg>